<svg xmlns="http://www.w3.org/2000/svg" xmlns:xlink="http://www.w3.org/1999/xlink" width="202" zoomAndPan="magnify" viewBox="0 0 151.5 157.499993" height="210" preserveAspectRatio="xMidYMid meet" version="1.0"><defs><g/><clipPath id="7644df9e3b"><path d="M 16 56.875 L 24 56.875 L 24 73 L 16 73 Z M 16 56.875 " clip-rule="nonzero"/></clipPath></defs><g fill="#393b24" fill-opacity="1"><g transform="translate(45.723559, 79.609318)"><g><path d="M 7.183594 -2.894531 C 6.804688 -2.261719 6.398438 -1.539062 5.253906 -1.453125 C 3.539062 -1.453125 2.742188 -3.058594 2.730469 -4.585938 C 2.707031 -5.886719 3.265625 -6.574219 3.875 -6.683594 C 3.976562 -6.703125 4.0625 -6.703125 4.148438 -6.703125 C 4.761719 -6.703125 5.144531 -6.277344 5.152344 -5.417969 C 5.164062 -4.609375 5.472656 -4.050781 6.34375 -4.050781 C 7 -4.050781 7.578125 -4.488281 7.480469 -5.328125 C 7.414062 -5.929688 6.648438 -7.359375 4.226562 -7.359375 C 4.09375 -7.359375 3.953125 -7.359375 3.8125 -7.347656 C 1.789062 -7.230469 0.164062 -5.753906 0.164062 -3.59375 C 0.164062 -1.332031 1.933594 0.1875 4.039062 0.1875 C 5.84375 0.1875 7.402344 -0.929688 7.820312 -2.652344 L 7.820312 -2.664062 C 7.882812 -2.9375 7.710938 -3.101562 7.511719 -3.101562 C 7.394531 -3.101562 7.273438 -3.035156 7.183594 -2.894531 Z M 7.183594 -2.894531 "/></g></g></g><g fill="#393b24" fill-opacity="1"><g transform="translate(54.88986, 79.609318)"><g><path d="M 5 -0.601562 C 4.945312 -0.589844 4.882812 -0.578125 4.828125 -0.578125 C 4.039062 -0.578125 3.386719 -1.789062 3.015625 -3.210938 C 2.632812 -4.664062 2.46875 -6.34375 3.363281 -6.605469 C 3.441406 -6.628906 3.515625 -6.640625 3.59375 -6.640625 C 4.445312 -6.640625 5.109375 -5.21875 5.425781 -3.964844 C 5.796875 -2.5 5.875 -0.796875 5 -0.601562 Z M 4.171875 -7.394531 C 2 -7.394531 0.164062 -5.863281 0.164062 -3.59375 C 0.164062 -1.320312 2 0.207031 4.171875 0.207031 C 6.355469 0.207031 8.191406 -1.332031 8.191406 -3.59375 C 8.191406 -5.851562 6.355469 -7.394531 4.171875 -7.394531 Z M 4.171875 -7.394531 "/></g></g></g><g fill="#393b24" fill-opacity="1"><g transform="translate(64.416192, 79.609318)"><g><path d="M 7.65625 -2.171875 C 7.589844 -3.1875 6.507812 -3.789062 5.742188 -4.191406 C 5.089844 -4.53125 4.007812 -5.121094 3.757812 -5.285156 C 3.308594 -5.546875 2.960938 -5.820312 3.023438 -6.289062 C 3.089844 -6.75 3.539062 -6.890625 3.941406 -6.890625 C 4.421875 -6.878906 4.792969 -6.660156 4.957031 -6.179688 C 5.121094 -5.710938 5.308594 -4.871094 6.070312 -4.738281 C 6.148438 -4.726562 6.222656 -4.71875 6.300781 -4.71875 C 6.945312 -4.71875 7.207031 -5.308594 7.066406 -5.796875 C 6.859375 -6.519531 5.863281 -7.285156 4.171875 -7.394531 C 4.019531 -7.402344 3.867188 -7.402344 3.722656 -7.402344 C 1.835938 -7.402344 0.644531 -6.585938 0.46875 -5.546875 C 0.261719 -4.183594 1.519531 -3.484375 2.183594 -3.167969 C 2.632812 -2.949219 3.40625 -2.554688 3.605469 -2.457031 C 3.996094 -2.261719 5.152344 -1.84375 5.054688 -1.046875 C 5.011719 -0.6875 4.664062 -0.347656 4.019531 -0.347656 C 3.144531 -0.347656 2.589844 -0.765625 2.425781 -1.648438 C 2.28125 -2.402344 1.867188 -2.816406 1.246094 -2.816406 C 1.15625 -2.816406 1.070312 -2.804688 0.972656 -2.796875 C 0.328125 -2.695312 0.0429688 -2.128906 0.207031 -1.527344 C 0.601562 -0.1875 2.859375 0.230469 4.074219 0.230469 C 6.203125 0.230469 7.742188 -0.589844 7.65625 -2.171875 Z M 7.65625 -2.171875 "/></g></g></g><g fill="#393b24" fill-opacity="1"><g transform="translate(73.418832, 79.609318)"><g><path d="M 0.21875 -0.382812 C 0.285156 -0.0546875 2.324219 0.0234375 3.070312 0.03125 L 3.078125 0.03125 C 3.113281 0.03125 6.519531 0.03125 6.976562 -0.152344 C 7.359375 -0.328125 7.359375 -0.894531 7.359375 -1.246094 C 7.359375 -1.582031 7.394531 -2.316406 6.921875 -2.316406 C 6.355469 -2.316406 6.496094 -0.65625 5.351562 -0.65625 L 4.105469 -0.65625 C 3.710938 -0.6875 3.484375 -0.9375 3.484375 -1.726562 L 3.484375 -3.132812 L 3.503906 -3.132812 C 4.652344 -3.132812 4.390625 -2.019531 4.957031 -2.019531 C 5.382812 -2.019531 5.308594 -2.523438 5.308594 -2.871094 L 5.308594 -4.09375 C 5.308594 -4.445312 5.382812 -4.957031 4.957031 -4.957031 C 4.390625 -4.957031 4.652344 -3.832031 3.503906 -3.832031 L 3.484375 -3.832031 L 3.484375 -5.472656 C 3.484375 -6.300781 3.746094 -6.53125 4.183594 -6.542969 L 5.023438 -6.542969 C 6.167969 -6.542969 6.027344 -4.882812 6.59375 -4.882812 C 7.074219 -4.882812 7.03125 -5.613281 7.03125 -5.953125 C 7.03125 -6.300781 7.042969 -6.867188 6.648438 -7.042969 C 6.234375 -7.21875 4.3125 -7.230469 3.332031 -7.230469 C 3.125 -7.230469 2.960938 -7.230469 2.859375 -7.230469 L 2.851562 -7.21875 C 2.207031 -7.21875 0.285156 -7.140625 0.21875 -6.804688 C 0.152344 -6.378906 0.917969 -6.289062 0.917969 -5.472656 L 0.917969 -1.726562 C 0.917969 -0.90625 0.152344 -0.820312 0.21875 -0.382812 Z M 0.21875 -0.382812 "/></g></g></g><g fill="#393b24" fill-opacity="1"><g transform="translate(82.115992, 79.609318)"><g><path d="M 7.183594 -2.894531 C 6.804688 -2.261719 6.398438 -1.539062 5.253906 -1.453125 C 3.539062 -1.453125 2.742188 -3.058594 2.730469 -4.585938 C 2.707031 -5.886719 3.265625 -6.574219 3.875 -6.683594 C 3.976562 -6.703125 4.0625 -6.703125 4.148438 -6.703125 C 4.761719 -6.703125 5.144531 -6.277344 5.152344 -5.417969 C 5.164062 -4.609375 5.472656 -4.050781 6.34375 -4.050781 C 7 -4.050781 7.578125 -4.488281 7.480469 -5.328125 C 7.414062 -5.929688 6.648438 -7.359375 4.226562 -7.359375 C 4.09375 -7.359375 3.953125 -7.359375 3.8125 -7.347656 C 1.789062 -7.230469 0.164062 -5.753906 0.164062 -3.59375 C 0.164062 -1.332031 1.933594 0.1875 4.039062 0.1875 C 5.84375 0.1875 7.402344 -0.929688 7.820312 -2.652344 L 7.820312 -2.664062 C 7.882812 -2.9375 7.710938 -3.101562 7.511719 -3.101562 C 7.394531 -3.101562 7.273438 -3.035156 7.183594 -2.894531 Z M 7.183594 -2.894531 "/></g></g></g><g fill="#393b24" fill-opacity="1"><g transform="translate(91.282292, 79.609318)"><g><path d="M 0.21875 -0.382812 C 0.285156 0 1.890625 0.03125 2.207031 0.03125 C 2.523438 0.03125 4.128906 0.0234375 4.171875 -0.382812 C 4.203125 -0.828125 3.484375 -0.875 3.484375 -1.726562 L 3.484375 -3.332031 L 5.6875 -3.332031 L 5.6875 -1.726562 C 5.6875 -0.90625 4.914062 -0.820312 4.992188 -0.382812 C 5.054688 0 6.648438 0.03125 6.96875 0.03125 C 7.292969 0.03125 8.898438 0.0234375 8.933594 -0.382812 C 8.976562 -0.828125 8.253906 -0.875 8.253906 -1.726562 L 8.253906 -5.460938 C 8.253906 -6.300781 8.976562 -6.34375 8.933594 -6.792969 C 8.898438 -7.207031 7.292969 -7.21875 6.96875 -7.21875 C 6.648438 -7.21875 5.054688 -7.175781 4.992188 -6.792969 C 4.914062 -6.367188 5.6875 -6.277344 5.6875 -5.460938 L 5.6875 -4.019531 L 3.484375 -4.019531 L 3.484375 -5.460938 C 3.484375 -6.300781 4.203125 -6.34375 4.171875 -6.792969 C 4.128906 -7.207031 2.523438 -7.21875 2.207031 -7.21875 C 1.890625 -7.21875 0.285156 -7.175781 0.21875 -6.792969 C 0.152344 -6.367188 0.917969 -6.277344 0.917969 -5.460938 L 0.917969 -1.726562 C 0.917969 -0.90625 0.152344 -0.820312 0.21875 -0.382812 Z M 0.21875 -0.382812 "/></g></g></g><g fill="#393b24" fill-opacity="1"><g transform="translate(101.615969, 79.609318)"><g><path d="M 2.480469 -2.589844 C 2.785156 -3.339844 3.230469 -4.433594 3.515625 -5.132812 L 3.648438 -4.828125 C 3.667969 -4.761719 3.703125 -4.707031 3.722656 -4.640625 L 4.628906 -2.589844 Z M 7.546875 -1.789062 C 7.449219 -2.007812 5.953125 -5.582031 5.953125 -5.582031 C 5.601562 -6.433594 5.472656 -7.292969 4.085938 -7.402344 C 4.039062 -7.402344 3.976562 -7.414062 3.898438 -7.414062 C 3.496094 -7.414062 2.785156 -7.339844 2.675781 -6.96875 C 2.609375 -6.714844 2.761719 -6.5625 2.980469 -6.222656 L 1.203125 -1.8125 C 0.863281 -0.960938 0.109375 -0.875 0.109375 -0.414062 C 0.109375 -0.0664062 0.851562 0.0234375 1.167969 0.03125 C 1.496094 0.03125 2.542969 0.03125 2.589844 -0.394531 C 2.644531 -0.851562 1.824219 -0.917969 2.164062 -1.8125 L 2.195312 -1.898438 L 4.9375 -1.898438 L 4.980469 -1.789062 C 5.328125 -0.9375 4.554688 -0.785156 4.664062 -0.402344 C 4.773438 0.0234375 6.34375 0.03125 6.769531 0.03125 C 7.140625 0.03125 8.496094 0.03125 8.605469 -0.402344 C 8.734375 -0.9375 7.90625 -0.90625 7.546875 -1.789062 Z M 7.546875 -1.789062 "/></g></g></g><g fill="#393b24" fill-opacity="1"><g transform="translate(112.671087, 79.42232)"><g><path d="M 3.539062 -6.097656 C 3.226562 -6.132812 3.085938 -6.132812 2.753906 -6.132812 L 0.890625 -6.132812 L 0.890625 0 L 2.710938 0 C 3.039062 0 3.183594 0 3.492188 -0.0351562 C 4.914062 -0.214844 5.964844 -1.332031 5.964844 -3.136719 C 5.964844 -4.96875 4.960938 -5.921875 3.539062 -6.097656 Z M 3.414062 -0.667969 C 3.21875 -0.632812 2.988281 -0.621094 2.667969 -0.621094 L 1.652344 -0.621094 L 1.652344 -5.511719 L 2.710938 -5.511719 C 3.03125 -5.511719 3.261719 -5.503906 3.457031 -5.464844 C 4.496094 -5.296875 5.128906 -4.496094 5.128906 -3.136719 C 5.128906 -1.6875 4.453125 -0.835938 3.414062 -0.667969 Z M 3.414062 -0.667969 "/></g></g></g><g fill="#393b24" fill-opacity="1"><g transform="translate(119.773441, 79.42232)"><g><path d="M 4.96875 -0.621094 L 1.652344 -0.621094 L 1.652344 -2.753906 L 4.613281 -2.753906 L 4.613281 -3.378906 L 1.652344 -3.378906 L 1.652344 -5.511719 L 4.878906 -5.511719 L 4.878906 -6.132812 L 0.890625 -6.132812 L 0.890625 0 L 4.96875 0 Z M 4.96875 -0.621094 "/></g></g></g><g fill="#393b24" fill-opacity="1"><g transform="translate(125.791333, 79.42232)"><g><path d="M 4.96875 -0.621094 L 1.652344 -0.621094 L 1.652344 -6.132812 L 0.890625 -6.132812 L 0.890625 0 L 4.96875 0 Z M 4.96875 -0.621094 "/></g></g></g><g fill="#393b24" fill-opacity="1"><g transform="translate(45.723559, 91.667875)"><g><path d="M 12.21875 -2.132812 C 12.136719 -2.714844 11.703125 -6.15625 11.625 -6.75 C 11.503906 -7.789062 12.378906 -7.84375 12.257812 -8.398438 C 12.148438 -8.910156 10.164062 -8.921875 9.773438 -8.921875 C 9.410156 -8.921875 8.425781 -8.882812 8.261719 -8.492188 L 8.25 -8.492188 L 6.761719 -4.023438 L 5.117188 -8.53125 C 4.914062 -8.882812 3.902344 -8.910156 3.550781 -8.910156 C 3.160156 -8.910156 1.269531 -8.882812 1.121094 -8.410156 C 0.972656 -7.882812 1.972656 -7.777344 1.847656 -6.761719 L 1.253906 -2.09375 C 1.132812 -1.09375 0.242188 -1.027344 0.269531 -0.5 C 0.296875 -0.0273438 1.351562 0.0273438 1.742188 0.0273438 C 2.132812 0.0273438 3.238281 0.0273438 3.347656 -0.472656 C 3.46875 -1.027344 2.308594 -1.054688 2.445312 -2.09375 C 2.496094 -2.511719 2.742188 -4.507812 2.902344 -5.777344 L 4.671875 -0.917969 C 4.792969 -0.566406 5.128906 -0.335938 5.507812 -0.335938 L 6.074219 -0.335938 C 6.464844 -0.335938 6.804688 -0.582031 6.925781 -0.945312 L 8.558594 -5.953125 L 9.046875 -2.132812 C 9.167969 -1.121094 8.234375 -1.011719 8.398438 -0.472656 C 8.53125 0 10.515625 0.0390625 10.90625 0.0390625 C 11.300781 0.0390625 13.285156 0.0273438 13.269531 -0.472656 C 13.242188 -1.027344 12.351562 -1.078125 12.21875 -2.132812 Z M 12.21875 -2.132812 "/></g></g></g><g fill="#393b24" fill-opacity="1"><g transform="translate(60.182065, 91.667875)"><g><path d="M 6.183594 -0.742188 C 6.117188 -0.730469 6.035156 -0.714844 5.96875 -0.714844 C 4.996094 -0.714844 4.183594 -2.214844 3.726562 -3.96875 C 3.253906 -5.765625 3.050781 -7.84375 4.15625 -8.167969 C 4.253906 -8.195312 4.347656 -8.207031 4.441406 -8.207031 C 5.496094 -8.207031 6.316406 -6.453125 6.710938 -4.902344 C 7.167969 -3.089844 7.261719 -0.984375 6.183594 -0.742188 Z M 5.15625 -9.140625 C 2.46875 -9.140625 0.203125 -7.25 0.203125 -4.441406 C 0.203125 -1.632812 2.46875 0.257812 5.15625 0.257812 C 7.855469 0.257812 10.125 -1.648438 10.125 -4.441406 C 10.125 -7.234375 7.855469 -9.140625 5.15625 -9.140625 Z M 5.15625 -9.140625 "/></g></g></g><g fill="#393b24" fill-opacity="1"><g transform="translate(71.427586, 91.667875)"><g><path d="M 12.21875 -2.132812 C 12.136719 -2.714844 11.703125 -6.15625 11.625 -6.75 C 11.503906 -7.789062 12.378906 -7.84375 12.257812 -8.398438 C 12.148438 -8.910156 10.164062 -8.921875 9.773438 -8.921875 C 9.410156 -8.921875 8.425781 -8.882812 8.261719 -8.492188 L 8.25 -8.492188 L 6.761719 -4.023438 L 5.117188 -8.53125 C 4.914062 -8.882812 3.902344 -8.910156 3.550781 -8.910156 C 3.160156 -8.910156 1.269531 -8.882812 1.121094 -8.410156 C 0.972656 -7.882812 1.972656 -7.777344 1.847656 -6.761719 L 1.253906 -2.09375 C 1.132812 -1.09375 0.242188 -1.027344 0.269531 -0.5 C 0.296875 -0.0273438 1.351562 0.0273438 1.742188 0.0273438 C 2.132812 0.0273438 3.238281 0.0273438 3.347656 -0.472656 C 3.46875 -1.027344 2.308594 -1.054688 2.445312 -2.09375 C 2.496094 -2.511719 2.742188 -4.507812 2.902344 -5.777344 L 4.671875 -0.917969 C 4.792969 -0.566406 5.128906 -0.335938 5.507812 -0.335938 L 6.074219 -0.335938 C 6.464844 -0.335938 6.804688 -0.582031 6.925781 -0.945312 L 8.558594 -5.953125 L 9.046875 -2.132812 C 9.167969 -1.121094 8.234375 -1.011719 8.398438 -0.472656 C 8.53125 0 10.515625 0.0390625 10.90625 0.0390625 C 11.300781 0.0390625 13.285156 0.0273438 13.269531 -0.472656 C 13.242188 -1.027344 12.351562 -1.078125 12.21875 -2.132812 Z M 12.21875 -2.132812 "/></g></g></g><g fill="#393b24" fill-opacity="1"><g transform="translate(85.886093, 91.667875)"><g><path d="M 0.269531 -0.472656 C 0.351562 -0.0664062 2.875 0.0273438 3.792969 0.0390625 L 3.808594 0.0390625 C 3.847656 0.0390625 8.058594 0.0390625 8.625 -0.1875 C 9.097656 -0.40625 9.097656 -1.105469 9.097656 -1.539062 C 9.097656 -1.957031 9.140625 -2.863281 8.558594 -2.863281 C 7.855469 -2.863281 8.03125 -0.808594 6.613281 -0.808594 L 5.074219 -0.808594 C 4.589844 -0.851562 4.304688 -1.160156 4.304688 -2.132812 L 4.304688 -3.875 L 4.332031 -3.875 C 5.75 -3.875 5.425781 -2.496094 6.128906 -2.496094 C 6.65625 -2.496094 6.5625 -3.117188 6.5625 -3.550781 L 6.5625 -5.0625 C 6.5625 -5.496094 6.65625 -6.128906 6.128906 -6.128906 C 5.425781 -6.128906 5.75 -4.738281 4.332031 -4.738281 L 4.304688 -4.738281 L 4.304688 -6.761719 C 4.304688 -7.789062 4.628906 -8.074219 5.171875 -8.085938 L 6.210938 -8.085938 C 7.628906 -8.085938 7.453125 -6.035156 8.152344 -6.035156 C 8.746094 -6.035156 8.695312 -6.9375 8.695312 -7.359375 C 8.695312 -7.789062 8.707031 -8.492188 8.222656 -8.707031 C 7.707031 -8.921875 5.332031 -8.9375 4.117188 -8.9375 C 3.859375 -8.9375 3.660156 -8.9375 3.535156 -8.9375 L 3.523438 -8.921875 C 2.726562 -8.921875 0.351562 -8.828125 0.269531 -8.410156 C 0.1875 -7.882812 1.132812 -7.777344 1.132812 -6.761719 L 1.132812 -2.132812 C 1.132812 -1.121094 0.1875 -1.011719 0.269531 -0.472656 Z M 0.269531 -0.472656 "/></g></g></g><g fill="#393b24" fill-opacity="1"><g transform="translate(96.105615, 91.667875)"><g><path d="M 9.976562 -8.371094 C 9.921875 -8.882812 8.828125 -8.898438 8.4375 -8.898438 C 8.046875 -8.898438 6.964844 -8.84375 6.886719 -8.371094 C 6.789062 -7.84375 7.804688 -7.761719 7.804688 -6.75 L 7.804688 -4.171875 C 6.789062 -5.414062 5.414062 -7.019531 4.347656 -8.34375 C 4.0625 -8.707031 3.617188 -8.921875 3.160156 -8.921875 C 2.96875 -8.921875 2.765625 -8.921875 2.59375 -8.921875 C 2.226562 -8.921875 1.929688 -8.921875 1.929688 -8.921875 C 1.539062 -8.921875 0.351562 -8.898438 0.269531 -8.398438 C 0.1875 -7.871094 1.203125 -7.761719 1.203125 -6.75 L 1.203125 -2.132812 C 1.203125 -1.121094 0.1875 -1.011719 0.269531 -0.484375 C 0.351562 -0.0117188 1.429688 0.0390625 1.824219 0.0390625 C 2.226562 0.0390625 3.320312 0.0273438 3.363281 -0.484375 C 3.402344 -1.027344 2.457031 -1.078125 2.457031 -2.132812 C 2.457031 -2.539062 2.457031 -4.265625 2.457031 -5.507812 L 6.601562 -0.527344 C 6.898438 -0.175781 7.332031 0.0273438 7.777344 0.0273438 L 8.152344 0.0273438 C 8.261719 0.0390625 8.371094 0.0390625 8.4375 0.0390625 C 8.828125 0.0390625 9.34375 0.0273438 9.382812 -0.484375 C 9.4375 -1.027344 9.070312 -1.078125 9.070312 -2.132812 C 9.070312 -2.726562 9.070312 -6.15625 9.070312 -6.75 C 9.070312 -7.804688 10.015625 -7.816406 9.976562 -8.371094 Z M 9.976562 -8.371094 "/></g></g></g><g fill="#393b24" fill-opacity="1"><g transform="translate(107.270133, 91.667875)"><g><path d="M 0.742188 -5.144531 C 1.648438 -5.183594 1.011719 -8.085938 2.445312 -8.085938 L 2.644531 -8.085938 C 3.199219 -8.085938 3.402344 -7.804688 3.402344 -6.75 L 3.402344 -2.132812 C 3.402344 -1.121094 2.457031 -1.011719 2.539062 -0.472656 C 2.617188 -0.0117188 4.601562 0.0390625 4.996094 0.0390625 C 5.386719 0.0390625 7.371094 0.0273438 7.410156 -0.472656 C 7.464844 -1.027344 6.574219 -1.078125 6.574219 -2.132812 L 6.574219 -6.761719 C 6.574219 -7.722656 6.75 -8.03125 7.210938 -8.085938 L 7.519531 -8.085938 C 8.9375 -8.085938 8.300781 -5.183594 9.207031 -5.144531 C 9.800781 -5.117188 9.816406 -6.640625 9.816406 -7.058594 C 9.816406 -7.492188 9.800781 -8.574219 9.316406 -8.773438 C 9.03125 -8.898438 7.113281 -8.949219 5.15625 -8.949219 C 3.089844 -8.949219 0.972656 -8.882812 0.675781 -8.761719 C 0.1875 -8.558594 0.136719 -7.492188 0.136719 -7.058594 C 0.136719 -6.640625 0.148438 -5.117188 0.742188 -5.144531 Z M 0.742188 -5.144531 "/></g></g></g><g fill="#393b24" fill-opacity="1"><g transform="translate(118.137654, 91.667875)"><g><path d="M 6.183594 -0.742188 C 6.117188 -0.730469 6.035156 -0.714844 5.96875 -0.714844 C 4.996094 -0.714844 4.183594 -2.214844 3.726562 -3.96875 C 3.253906 -5.765625 3.050781 -7.84375 4.15625 -8.167969 C 4.253906 -8.195312 4.347656 -8.207031 4.441406 -8.207031 C 5.496094 -8.207031 6.316406 -6.453125 6.710938 -4.902344 C 7.167969 -3.089844 7.261719 -0.984375 6.183594 -0.742188 Z M 5.15625 -9.140625 C 2.46875 -9.140625 0.203125 -7.25 0.203125 -4.441406 C 0.203125 -1.632812 2.46875 0.257812 5.15625 0.257812 C 7.855469 0.257812 10.125 -1.648438 10.125 -4.441406 C 10.125 -7.234375 7.855469 -9.140625 5.15625 -9.140625 Z M 5.15625 -9.140625 "/></g></g></g><path fill="#d93022" d="M 11.160156 68.28125 C 15.046875 66.695312 19.667969 68.304688 23.296875 72.007812 C 26.957031 68.136719 31.699219 66.421875 35.664062 68.039062 C 41.414062 70.382812 43.355469 78.84375 40.003906 86.933594 C 36.683594 94.941406 29.421875 99.578125 23.695312 97.394531 C 23.566406 97.457031 23.4375 97.519531 23.304688 97.570312 C 17.554688 99.917969 10.175781 95.261719 6.824219 87.171875 C 3.46875 79.082031 5.410156 70.625 11.160156 68.28125 " fill-opacity="1" fill-rule="nonzero"/><path stroke-linecap="round" transform="matrix(-0.0207586, 0, 0, -0.0205945, 67.546019, 121.658615)" fill="none" stroke-linejoin="round" d="M 2716.267021 2591.828783 C 2529.03275 2668.836677 2306.421552 2590.690736 2131.606841 2410.879201 C 1955.286729 2598.846744 1726.842102 2682.1139 1535.844328 2603.58861 C 1258.850513 2489.783841 1165.327465 2078.948625 1326.781741 1686.132498 C 1486.730615 1297.299537 1836.548212 1072.15577 2112.412977 1178.183879 C 2118.622756 1175.149086 2124.832536 1172.114292 2131.230491 1169.648522 C 2408.224307 1055.654078 2763.687158 1281.746219 2925.141433 1674.562346 C 3086.783884 2067.378473 2993.260836 2478.024015 2716.267021 2591.828783 Z M 2716.267021 2591.828783 " stroke="#24578f" stroke-width="30" stroke-opacity="1" stroke-miterlimit="10"/><g clip-path="url(#7644df9e3b)"><path fill="#24578f" d="M 23.46875 72.855469 C 23.46875 72.855469 23.519531 72.558594 23.589844 72.035156 C 23.664062 71.515625 23.742188 70.769531 23.792969 69.867188 C 23.820312 69.417969 23.839844 68.929688 23.847656 68.410156 C 23.851562 67.894531 23.84375 67.347656 23.816406 66.777344 C 23.773438 65.644531 23.632812 64.433594 23.378906 63.230469 C 23.25 62.628906 23.078125 62.035156 22.871094 61.453125 C 22.660156 60.878906 22.398438 60.316406 22.09375 59.800781 C 21.785156 59.28125 21.410156 58.808594 20.996094 58.414062 C 20.582031 58.015625 20.117188 57.703125 19.65625 57.480469 C 19.195312 57.257812 18.742188 57.125 18.335938 57.050781 C 17.933594 56.960938 17.570312 56.964844 17.285156 57.023438 C 16.996094 57.085938 16.78125 57.191406 16.644531 57.285156 C 16.503906 57.382812 16.4375 57.449219 16.4375 57.449219 C 16.351562 57.539062 16.351562 57.679688 16.441406 57.765625 C 16.449219 57.769531 16.460938 57.777344 16.472656 57.785156 L 16.480469 57.792969 C 16.480469 57.792969 16.5625 57.847656 16.703125 57.917969 C 16.84375 57.976562 17.042969 58.0625 17.28125 58.121094 C 17.398438 58.15625 17.527344 58.171875 17.667969 58.199219 C 17.734375 58.210938 17.808594 58.21875 17.882812 58.226562 C 17.957031 58.238281 18.03125 58.25 18.113281 58.261719 C 18.425781 58.316406 18.773438 58.414062 19.121094 58.578125 C 19.472656 58.746094 19.824219 58.980469 20.160156 59.289062 C 20.492188 59.597656 20.796875 59.980469 21.074219 60.414062 C 21.351562 60.851562 21.59375 61.335938 21.800781 61.855469 C 22.007812 62.375 22.175781 62.921875 22.328125 63.480469 C 22.625 64.59375 22.796875 65.753906 22.921875 66.847656 C 23.042969 67.941406 23.101562 68.972656 23.125 69.859375 C 23.152344 70.746094 23.152344 71.484375 23.144531 72.003906 C 23.136719 72.523438 23.121094 72.816406 23.121094 72.816406 C 23.117188 72.910156 23.191406 72.992188 23.289062 72.996094 C 23.378906 73.003906 23.453125 72.941406 23.46875 72.855469 " fill-opacity="1" fill-rule="nonzero"/></g><path fill="#77cb4a" d="M 32.726562 60.121094 C 31.980469 58.988281 26.734375 58.550781 24.792969 59.410156 C 22.878906 60.257812 22.21875 62.382812 22.960938 63.515625 C 23.707031 64.648438 26.046875 65.019531 27.484375 63.511719 C 29.269531 61.636719 33.472656 61.253906 32.726562 60.121094 " fill-opacity="1" fill-rule="nonzero"/><path stroke-linecap="round" transform="matrix(-0.0207586, 0, 0, -0.0205945, 67.546019, 121.658615)" fill="none" stroke-linejoin="round" d="M 1677.352038 2988.059054 C 1713.293491 3043.064692 1966.012713 3064.308249 2059.53576 3022.579834 C 2151.741582 2981.420442 2183.543182 2878.237452 2147.789904 2823.231813 C 2111.848451 2768.226175 1999.131538 2750.207087 1929.883085 2823.421488 C 1843.887043 2914.465303 1641.410585 2933.053415 1677.352038 2988.059054 Z M 1677.352038 2988.059054 " stroke="#24578f" stroke-width="30" stroke-opacity="1" stroke-miterlimit="10"/><path stroke-linecap="round" transform="matrix(-0.0207586, 0, 0, -0.0205945, 67.546019, 121.658615)" fill="none" stroke-linejoin="round" d="M 2263.517619 2401.964494 C 2263.517619 2401.964494 2516.989541 2628.625659 2713.632569 2498.508873 C 2713.632569 2498.508873 3053.665058 2333.681633 2860.221008 1725.205468 " stroke="#ffffff" stroke-width="30" stroke-opacity="1" stroke-miterlimit="10"/><path stroke-linecap="round" transform="matrix(-0.0207586, 0, 0, -0.0205945, 67.546019, 121.658615)" fill="none" stroke-linejoin="round" d="M 2153.623334 1211.945961 C 2153.623334 1211.945961 2460.913347 1124.126614 2713.632569 1458.52296 " stroke="#ffffff" stroke-width="30" stroke-opacity="1" stroke-miterlimit="10"/><path stroke-linecap="round" transform="matrix(-0.0207586, 0, 0, -0.0205945, 67.546019, 121.658615)" fill="none" stroke-linejoin="round" d="M 1646.867665 2575.327092 C 1646.867665 2575.327092 1950.206 2565.274337 2091.901886 2358.529007 " stroke="#ffffff" stroke-width="30" stroke-opacity="1" stroke-miterlimit="10"/><path stroke-linecap="round" transform="matrix(-0.0207586, 0, 0, -0.0205945, 67.546019, 121.658615)" fill="none" stroke-linejoin="round" d="M 2060.288461 2972.885085 C 2060.288461 2972.885085 2125.961587 2936.846908 2115.235604 2853.579752 " stroke="#ffffff" stroke-width="30" stroke-opacity="1" stroke-miterlimit="10"/><g fill="#393b24" fill-opacity="1"><g transform="translate(127.919532, 91.000915)"><g><path d="M 0.839844 -0.742188 C 0.558594 -0.742188 0.328125 -0.558594 0.328125 -0.328125 C 0.328125 -0.101562 0.558594 0.0859375 0.839844 0.0859375 C 1.125 0.0859375 1.355469 -0.101562 1.355469 -0.328125 C 1.355469 -0.558594 1.125 -0.742188 0.839844 -0.742188 Z M 0.839844 -0.742188 "/></g></g></g><g fill="#393b24" fill-opacity="1"><g transform="translate(129.798434, 91.000915)"><g><path d="M 2.039062 -0.78125 C 1.933594 -0.613281 1.773438 -0.507812 1.589844 -0.496094 C 1.171875 -0.496094 0.925781 -0.878906 0.902344 -1.265625 C 0.890625 -1.449219 0.941406 -1.753906 1.152344 -1.785156 C 1.167969 -1.789062 1.183594 -1.789062 1.195312 -1.789062 C 1.386719 -1.789062 1.304688 -1.554688 1.324219 -1.351562 C 1.347656 -1.117188 1.488281 -1 1.722656 -1 C 1.992188 -1 2.15625 -1.160156 2.128906 -1.382812 C 2.109375 -1.535156 1.894531 -1.90625 1.210938 -1.90625 C 0.625 -1.90625 0.0585938 -1.578125 0.0585938 -0.933594 C 0.0585938 -0.355469 0.5625 0.0351562 1.15625 0.0351562 C 1.664062 0.0351562 2.105469 -0.253906 2.226562 -0.695312 C 2.242188 -0.773438 2.183594 -0.824219 2.121094 -0.824219 C 2.089844 -0.824219 2.058594 -0.8125 2.039062 -0.78125 Z M 2.039062 -0.78125 "/></g></g></g><g fill="#393b24" fill-opacity="1"><g transform="translate(132.345893, 91.000915)"><g><path d="M 1.421875 -0.207031 C 1.40625 -0.203125 1.394531 -0.203125 1.378906 -0.203125 C 1.203125 -0.203125 1.054688 -0.488281 0.964844 -0.851562 C 0.867188 -1.242188 0.816406 -1.597656 1.007812 -1.644531 C 1.023438 -1.648438 1.039062 -1.648438 1.054688 -1.648438 C 1.25 -1.648438 1.378906 -1.316406 1.460938 -0.996094 C 1.558594 -0.617188 1.621094 -0.253906 1.421875 -0.207031 Z M 1.207031 -1.886719 C 0.582031 -1.886719 0.0585938 -1.503906 0.0585938 -0.925781 C 0.0585938 -0.351562 0.582031 0.0351562 1.207031 0.0351562 C 1.828125 0.0351562 2.355469 -0.351562 2.355469 -0.925781 C 2.355469 -1.5 1.828125 -1.886719 1.207031 -1.886719 Z M 1.207031 -1.886719 "/></g></g></g><g fill="#393b24" fill-opacity="1"><g transform="translate(135.020146, 91.000915)"><g><path d="M 3.667969 -0.597656 C 3.667969 -1.042969 3.667969 -1.101562 3.667969 -1.289062 C 3.667969 -1.648438 3.390625 -1.894531 2.972656 -1.894531 C 2.714844 -1.894531 2.503906 -1.804688 2.390625 -1.558594 C 2.308594 -1.777344 2.085938 -1.898438 1.792969 -1.898438 C 1.527344 -1.898438 1.285156 -1.816406 1.152344 -1.5625 C 1.113281 -1.75 1.082031 -1.9375 0.964844 -1.9375 C 0.933594 -1.9375 0.890625 -1.921875 0.839844 -1.886719 C 0.625 -1.734375 0.503906 -1.679688 0.183594 -1.574219 C 0.0273438 -1.527344 0.0546875 -1.382812 0.195312 -1.351562 C 0.285156 -1.335938 0.328125 -1.246094 0.328125 -0.992188 L 0.328125 -0.597656 C 0.328125 -0.3125 0.0585938 -0.28125 0.0820312 -0.128906 C 0.105469 0.00390625 0.648438 0.015625 0.761719 0.015625 C 0.871094 0.015625 1.40625 0.0117188 1.417969 -0.128906 C 1.433594 -0.289062 1.179688 -0.304688 1.179688 -0.597656 C 1.179688 -0.8125 1.179688 -0.96875 1.179688 -1.097656 C 1.1875 -1.3125 1.226562 -1.550781 1.382812 -1.550781 C 1.566406 -1.554688 1.554688 -1.246094 1.554688 -0.992188 L 1.554688 -0.597656 C 1.554688 -0.3125 1.59375 0.015625 1.992188 0.015625 C 2.101562 0.015625 2.652344 0.0117188 2.664062 -0.128906 C 2.675781 -0.289062 2.421875 -0.304688 2.421875 -0.597656 C 2.425781 -0.820312 2.425781 -0.964844 2.425781 -1.074219 C 2.429688 -1.292969 2.464844 -1.550781 2.628906 -1.550781 C 2.816406 -1.554688 2.800781 -1.246094 2.800781 -0.992188 L 2.800781 -0.597656 C 2.800781 -0.3125 2.839844 0.015625 3.234375 0.015625 C 3.347656 0.015625 3.894531 0.0117188 3.90625 -0.128906 C 3.921875 -0.289062 3.667969 -0.304688 3.667969 -0.597656 Z M 3.667969 -0.597656 "/></g></g></g></svg>