<?xml version="1.0" encoding="UTF-8"?>
<!DOCTYPE svg PUBLIC "-//W3C//DTD SVG 1.1//EN" "http://www.w3.org/Graphics/SVG/1.1/DTD/svg11.dtd">
<svg xmlns="http://www.w3.org/2000/svg" version="1.1" width="512px" height="512px" style="shape-rendering:geometricPrecision; text-rendering:geometricPrecision; image-rendering:optimizeQuality; fill-rule:evenodd; clip-rule:evenodd" xmlns:xlink="http://www.w3.org/1999/xlink">
<g><path style="opacity:0.969" fill="#020000" d="M 136.5,-0.5 C 142.833,-0.5 149.167,-0.5 155.5,-0.5C 182.728,2.1455 208.061,10.6455 231.5,25C 249.271,37.356 260.438,54.1893 265,75.5C 280.536,54.2959 300.036,37.7959 323.5,26C 340.998,21.9967 352.498,28.4967 358,45.5C 359.445,54.8911 356.945,63.0578 350.5,70C 320.296,86.0355 299.629,110.202 288.5,142.5C 288.833,142.833 289.167,143.167 289.5,143.5C 300.221,137.473 311.221,131.973 322.5,127C 364.182,111.775 402.849,117.109 438.5,143C 455.487,158.666 467.653,177.5 475,199.5C 497.506,275.794 487.506,347.46 445,414.5C 422.5,449 394,477.5 359.5,500C 350.863,504.993 341.863,508.827 332.5,511.5C 323.5,511.5 314.5,511.5 305.5,511.5C 294.316,508.486 283.65,503.986 273.5,498C 255.987,491.974 239.654,494.307 224.5,505C 218.154,507.503 211.821,509.67 205.5,511.5C 196.5,511.5 187.5,511.5 178.5,511.5C 158.626,504.727 140.626,494.561 124.5,481C 76.9099,440.677 45.4099,390.177 30,329.5C 21.3658,285.679 23.3658,242.345 36,199.5C 50.7725,154.552 81.2725,127.552 127.5,118.5C 119.927,100.593 117.094,81.9265 119,62.5C 120.74,42.131 125.407,22.4643 133,3.5C 134.376,2.29493 135.542,0.961599 136.5,-0.5 Z"/></g>
<g><path style="opacity:1" fill="#a2c100" d="M 188.5,24.5 C 219.368,41.5477 234.201,67.881 233,103.5C 230.871,106.767 229.038,110.101 227.5,113.5C 215.72,85.2218 197.72,61.7218 173.5,43C 165.538,41.962 161.704,45.462 162,53.5C 175.424,65.5883 187.424,78.9216 198,93.5C 207.144,108.293 213.977,124.126 218.5,141C 218.167,141.5 217.833,142 217.5,142.5C 196.029,129.121 172.696,121.121 147.5,118.5C 141.511,109.032 138.011,98.6989 137,87.5C 134.764,63.816 137.764,40.816 146,18.5C 160.491,17.7367 174.658,19.7367 188.5,24.5 Z"/></g>
<g><path style="opacity:1" fill="#8da800" d="M 188.5,24.5 C 205.968,29.1339 221.135,37.8006 234,50.5C 245.557,65.5064 250.89,82.5064 250,101.5C 243.766,113.635 238.932,126.301 235.5,139.5C 233.437,130.645 230.77,121.978 227.5,113.5C 229.038,110.101 230.871,106.767 233,103.5C 234.201,67.881 219.368,41.5477 188.5,24.5 Z"/></g>
<g><path style="opacity:1" fill="#9c502c" d="M 328.5,42.5 C 337.657,41.4892 341.49,45.4892 340,54.5C 331.294,61.1102 322.46,67.6102 313.5,74C 289.582,95.0963 274.249,121.263 267.5,152.5C 261.862,153.22 256.196,153.553 250.5,153.5C 259.529,104.4 285.529,67.4002 328.5,42.5 Z"/></g>
<g><path style="opacity:1" fill="#f34234" d="M 392.5,139.5 C 416.321,154.413 432.487,175.413 441,202.5C 463.011,278.757 452.011,349.757 408,415.5C 386.553,446.781 360.053,472.781 328.5,493.5C 318.414,495.325 308.414,494.491 298.5,491C 278.834,477.873 257.5,474.207 234.5,480C 227.554,482.806 220.888,486.139 214.5,490C 194.491,497.596 175.491,495.596 157.5,484C 101.159,444.956 64.3258,392.123 47,325.5C 41.0003,292.173 41.0003,258.84 47,225.5C 51.8992,197.525 64.7325,174.025 85.5,155C 110.551,136.877 138.218,131.544 168.5,139C 175.231,141.133 181.898,143.466 188.5,146C 198.881,152.191 209.548,157.857 220.5,163C 238.731,170.557 257.397,171.89 276.5,167C 281.894,165.535 287.228,163.869 292.5,162C 302.786,157.191 312.786,151.857 322.5,146C 345.242,136.096 368.575,133.93 392.5,139.5 Z"/></g>
<g><path style="opacity:1" fill="#c61e1d" d="M 392.5,139.5 C 413.051,144.363 429.551,155.363 442,172.5C 457.659,197.147 466.326,224.147 468,253.5C 472.749,305.165 461.749,353.165 435,397.5C 414.398,432.438 387.231,461.271 353.5,484C 345.771,488.869 337.437,492.036 328.5,493.5C 360.053,472.781 386.553,446.781 408,415.5C 452.011,349.757 463.011,278.757 441,202.5C 432.487,175.413 416.321,154.413 392.5,139.5 Z"/></g>
<g><path style="opacity:1" fill="#f5f1f1" d="M 129.5,153.5 C 135.842,153.334 142.175,153.5 148.5,154C 155.434,160.269 154.767,165.602 146.5,170C 117.753,169.787 97.9201,182.954 87,209.5C 79.1838,233.494 75.5171,258.161 76,283.5C 73.6471,288.426 69.8138,290.26 64.5,289C 62.3333,288.167 60.8333,286.667 60,284.5C 58.0722,255.169 62.4055,226.836 73,199.5C 84.3205,174.778 103.154,159.445 129.5,153.5 Z"/></g>
</svg>
